HIERARCHY
ROOT joint_Root
{
	OFFSET 0.0 0.0 0.0
	CHANNELS 6 Xposition Yposition Zposition Zrotation Xrotation Yrotation 
	JOINT Hips
	{
		OFFSET 4.5925 91.4895 -427.239
		CHANNELS 6 Xposition Yposition Zposition Zrotation Xrotation Yrotation 
		JOINT Spine
		{
			OFFSET 15.7357 0.0 0.0
			CHANNELS 6 Xposition Yposition Zposition Zrotation Xrotation Yrotation 
			JOINT Chest
			{
				OFFSET 8.98455 -0.406207 0.0
				CHANNELS 6 Xposition Yposition Zposition Zrotation Xrotation Yrotation 
				JOINT Neck
				{
					OFFSET 16.3773 0.0 0.0
					CHANNELS 6 Xposition Yposition Zposition Zrotation Xrotation Yrotation 
					JOINT Head
					{
						OFFSET 6.45672 0.0 0.0
						CHANNELS 6 Xposition Yposition Zposition Zrotation Xrotation Yrotation 
						End Site
						{
							OFFSET 0.0 0.0 0.0
						}
					}
				}
				JOINT Shoulder_L
				{
					OFFSET 12.9942 -0.242716 4.98039
					CHANNELS 6 Xposition Yposition Zposition Zrotation Xrotation Yrotation 
					JOINT UpperArm_L
					{
						OFFSET 5.34809 0.0 0.0
						CHANNELS 6 Xposition Yposition Zposition Zrotation Xrotation Yrotation 
						JOINT LowerArm_L
						{
							OFFSET 24.3286 1.87007e-05 0.0
							CHANNELS 6 Xposition Yposition Zposition Zrotation Xrotation Yrotation 
							JOINT Hand_L
							{
								OFFSET 22.2916 0.0 0.0
								CHANNELS 6 Xposition Yposition Zposition Zrotation Xrotation Yrotation 
								End Site
								{
									OFFSET 0.0 0.0 0.0
								}
							}
						}
					}
				}
				JOINT Shoulder_R
				{
					OFFSET 12.9945 -0.242716 -4.98039
					CHANNELS 6 Xposition Yposition Zposition Zrotation Xrotation Yrotation 
					JOINT UpperArm_R
					{
						OFFSET -5.34813 0.0 0.0
						CHANNELS 6 Xposition Yposition Zposition Zrotation Xrotation Yrotation 
						JOINT LowerArm_R
						{
							OFFSET -24.3289 0.000322201 0.0
							CHANNELS 6 Xposition Yposition Zposition Zrotation Xrotation Yrotation 
							JOINT Hand_R
							{
								OFFSET -22.2915 -0.000108084 0.0
								CHANNELS 6 Xposition Yposition Zposition Zrotation Xrotation Yrotation 
								End Site
								{
									OFFSET 0.0 0.0 0.0
								}
							}
						}
					}
				}
			}
		}
		JOINT UpperLeg_L
		{
			OFFSET -2.19248 -6.46944 0.0
			CHANNELS 6 Xposition Yposition Zposition Zrotation Xrotation Yrotation 
			JOINT LowerLeg_L
			{
				OFFSET 39.0811 0.0 -1.23785e-05
				CHANNELS 6 Xposition Yposition Zposition Zrotation Xrotation Yrotation 
				JOINT Foot_L
				{
					OFFSET 40.9854 0.0 -1.26872e-05
					CHANNELS 6 Xposition Yposition Zposition Zrotation Xrotation Yrotation 
					JOINT Toes_L
					{
						OFFSET 11.7543 0.0 0.0
						CHANNELS 6 Xposition Yposition Zposition Zrotation Xrotation Yrotation 
						End Site
						{
							OFFSET 0.0 0.0 0.0
						}
					}
				}
			}
		}
		JOINT UpperLeg_R
		{
			OFFSET -2.19251 6.46944 0.0
			CHANNELS 6 Xposition Yposition Zposition Zrotation Xrotation Yrotation 
			JOINT LowerLeg_R
			{
				OFFSET -39.0811 -0.00228153 -0.0401928
				CHANNELS 6 Xposition Yposition Zposition Zrotation Xrotation Yrotation 
				JOINT Foot_R
				{
					OFFSET -40.9854 0.0 0.0
					CHANNELS 6 Xposition Yposition Zposition Zrotation Xrotation Yrotation 
					JOINT Toes_R
					{
						OFFSET -11.7543 0.0 0.0
						CHANNELS 6 Xposition Yposition Zposition Zrotation Xrotation Yrotation 
						End Site
						{
							OFFSET 0.0 0.0 0.0
						}
					}
				}
			}
		}
	}
}
MOTION
Frames:	8
Frame Time:	0.0333333
0.000000 0.000000 0.000000 0.000000 0.000000 -0.000000 -1.705550 90.765500 -6.547870 89.096600 -2.449750 8.633120 15.735700 0.000005 -0.000001 86.513100 76.046500 -87.306500 8.984550 -0.406207 -0.000000 20.084000 -1.743860 -1.283070 16.377300 -0.000001 -0.000001 6.619760 -4.132220 2.560660 6.456720 -0.000001 -0.000000 -7.166590 -2.300890 -2.080600 12.994200 -0.242716 4.980390 -91.118200 5.471360 -78.430800 5.348090 -0.000007 -0.000001 -45.480600 40.776500 -39.550500 24.328600 0.000019 0.000005 7.192350 17.479900 -22.788400 22.291600 -0.000001 0.000005 11.952600 5.264860 1.036810 12.994500 -0.242716 -4.980390 89.305400 3.926970 -79.961600 -5.348130 -0.000001 -0.000004 -71.227900 -14.888900 -75.131600 -24.328900 0.000322 -0.000009 22.123200 -9.702100 -112.516000 -22.291500 -0.000108 -0.000004 26.281000 5.217220 2.283550 -2.192480 -6.469440 -0.000000 -174.826000 -8.158560 -7.053140 39.081100 -0.000007 -0.000012 -0.175225 0.274548 32.547600 40.985400 -0.000006 -0.000013 -0.888730 4.127640 -66.803500 11.754300 -0.000000 0.000003 -0.000073 -0.000783 -16.607800 -2.192510 6.469440 -0.000001 177.902000 18.386600 173.972000 -39.081100 -0.002282 -0.040193 -0.101855 0.167627 32.100200 -40.985400 0.000008 0.000006 5.369680 10.548000 -68.035000 -11.754300 -0.000006 -0.000006 -0.003747 -0.048780 -18.557200
0.000000 0.000000 0.000000 0.000000 0.000000 -0.000000 -1.684090 90.752000 -6.560800 89.097800 -2.456300 8.685420 15.735700 0.000005 -0.000001 86.459200 76.014700 -87.251600 8.984550 -0.406207 -0.000000 20.145800 -1.773420 -1.275010 16.377300 -0.000001 -0.000001 6.786880 -4.127330 2.615880 6.456720 -0.000001 -0.000000 -7.029690 -2.290190 -2.099020 12.994200 -0.242716 4.980390 -91.117300 5.456140 -78.409000 5.348090 -0.000007 -0.000001 -45.413900 40.746800 -39.655900 24.328600 0.000019 0.000005 7.179070 17.492300 -22.736200 22.291600 -0.000001 0.000005 12.004100 5.263980 1.060320 12.994500 -0.242716 -4.980390 89.307100 3.903410 -79.926000 -5.348130 -0.000001 -0.000004 -71.274600 -14.893700 -75.304100 -24.328900 0.000322 -0.000009 22.105800 -9.709440 -112.549000 -22.291500 -0.000108 -0.000004 26.275400 5.216310 2.306750 -2.192480 -6.469440 -0.000000 -174.834000 -8.189050 -7.049650 39.081100 -0.000007 -0.000012 -0.175575 0.274312 32.621800 40.985400 -0.000006 -0.000013 -0.866435 4.126780 -66.829000 11.754300 -0.000000 0.000003 -0.000066 -0.000721 -16.605400 -2.192510 6.469440 -0.000001 177.863000 18.353800 173.985000 -39.081100 -0.002282 -0.040193 -0.107520 0.176279 32.155500 -40.985400 0.000008 0.000006 5.250870 10.553100 -68.021300 -11.754300 -0.000006 -0.000006 -0.003876 -0.050149 -18.613000
0.000000 0.000000 0.000000 0.000000 0.000000 -0.000000 -1.662680 90.754900 -6.590530 89.077100 -2.426100 8.739330 15.735700 0.000005 -0.000001 86.368100 75.981200 -87.148800 8.984550 -0.406207 -0.000000 20.210200 -1.819850 -1.242140 16.377300 -0.000001 -0.000001 6.942440 -4.125550 2.648540 6.456720 -0.000001 -0.000000 -6.941040 -2.272050 -2.076670 12.994200 -0.242716 4.980390 -91.116200 5.439960 -78.386900 5.348090 -0.000007 -0.000001 -45.405800 40.747900 -39.692900 24.328600 0.000019 0.000005 7.154720 17.520100 -22.634800 22.291600 -0.000001 0.000005 12.013200 5.264790 1.038630 12.994500 -0.242716 -4.980390 89.308200 3.873610 -79.866200 -5.348130 -0.000001 -0.000004 -71.273700 -14.889400 -75.410800 -24.328900 0.000322 -0.000009 22.018900 -9.677310 -112.571000 -22.291500 -0.000108 -0.000004 26.311700 5.217540 2.275500 -2.192480 -6.469440 -0.000000 -174.822000 -8.184430 -7.022110 39.081100 -0.000007 -0.000012 -0.173723 0.271396 32.623900 40.985400 -0.000006 -0.000013 -0.844794 4.151240 -66.807500 11.754300 -0.000000 0.000003 -0.000073 -0.000789 -16.608000 -2.192510 6.469440 -0.000001 177.871000 18.353500 174.029000 -39.081100 -0.002282 -0.040193 -0.100442 0.165099 32.143100 -40.985400 0.000008 0.000006 5.325600 10.531900 -68.012800 -11.754300 -0.000006 -0.000006 -0.003832 -0.049676 -18.593700
0.000000 0.000000 0.000000 0.000000 0.000000 -0.000000 -1.642930 90.751700 -6.617390 89.081800 -2.463360 8.749160 15.735700 0.000005 -0.000001 86.323600 75.954000 -87.108100 8.984550 -0.406207 -0.000000 20.263000 -1.845100 -1.244460 16.377300 -0.000001 -0.000001 7.027830 -4.138490 2.681760 6.456720 -0.000001 -0.000000 -6.863110 -2.272050 -2.038560 12.994200 -0.242716 4.980390 -91.114700 5.432850 -78.386400 5.348090 -0.000007 -0.000001 -45.397100 40.750200 -39.653000 24.328600 0.000019 0.000005 7.183780 17.620100 -22.606000 22.291600 -0.000001 0.000005 11.997400 5.263180 1.081680 12.994500 -0.242716 -4.980390 89.302700 3.895790 -79.844100 -5.348130 -0.000001 -0.000004 -71.219800 -14.897800 -75.494800 -24.328900 0.000322 -0.000009 21.985100 -9.646660 -112.542000 -22.291500 -0.000108 -0.000004 26.252400 5.216160 2.310670 -2.192480 -6.469440 -0.000000 -174.824000 -8.232370 -7.035220 39.081100 -0.000007 -0.000012 -0.177553 0.277203 32.640500 40.985400 -0.000006 -0.000013 -0.825870 4.187190 -66.799700 11.754300 -0.000000 0.000003 -0.000069 -0.000751 -16.606600 -2.192510 6.469440 -0.000001 177.854000 18.326800 174.003000 -39.081100 -0.002282 -0.040193 -0.103784 0.170257 32.167300 -40.985400 0.000008 0.000006 5.322160 10.537700 -67.999600 -11.754300 -0.000006 -0.000006 -0.003953 -0.050955 -18.645800
0.000000 0.000000 0.000000 0.000000 0.000000 -0.000000 -1.623480 90.753800 -6.657200 89.079700 -2.465280 8.768010 15.735700 0.000005 -0.000001 86.273700 75.925200 -87.053400 8.984550 -0.406207 -0.000000 20.319000 -1.872210 -1.229060 16.377300 -0.000001 -0.000001 7.082430 -4.161460 2.708530 6.456720 -0.000001 -0.000000 -6.808130 -2.292100 -2.021590 12.994200 -0.242716 4.980390 -91.120500 5.457580 -78.379500 5.348090 -0.000007 -0.000001 -45.361200 40.807000 -39.604700 24.328600 0.000019 0.000005 7.161670 17.611500 -22.552300 22.291600 -0.000001 0.000005 12.017100 5.262260 1.106410 12.994500 -0.242716 -4.980390 89.303700 3.882290 -79.823900 -5.348130 -0.000001 -0.000004 -71.174200 -14.905100 -75.467500 -24.328900 0.000322 -0.000009 21.940200 -9.607870 -112.506000 -22.291500 -0.000108 -0.000004 26.105100 5.213540 2.377350 -2.192480 -6.469440 -0.000000 -174.846000 -8.225870 -7.049380 39.081100 -0.000007 -0.000012 -0.173296 0.270559 32.640300 40.985400 -0.000006 -0.000013 -0.812719 4.158280 -66.769200 11.754300 -0.000000 0.000003 -0.000072 -0.000777 -16.607600 -2.192510 6.469440 -0.000001 177.839000 18.335800 174.001000 -39.081100 -0.002282 -0.040193 -0.105632 0.173314 32.149800 -40.985400 0.000008 0.000006 5.252540 10.558700 -67.945500 -11.754300 -0.000006 -0.000006 -0.003923 -0.050635 -18.632700
0.000000 0.000000 0.000000 0.000000 0.000000 -0.000000 -1.600430 90.756500 -6.692740 89.070900 -2.520670 8.769870 15.735700 0.000005 -0.000001 86.279600 75.899600 -87.051100 8.984550 -0.406207 -0.000000 20.370500 -1.871920 -1.212010 16.377300 -0.000001 -0.000001 7.088380 -4.138200 2.722810 6.456720 -0.000001 -0.000000 -6.780460 -2.293260 -2.016170 12.994200 -0.242716 4.980390 -91.124500 5.460200 -78.344500 5.348090 -0.000007 -0.000001 -45.425300 40.847900 -39.520100 24.328600 0.000019 0.000005 7.149360 17.655700 -22.467900 22.291600 -0.000001 0.000005 11.931300 5.264150 1.055800 12.994500 -0.242716 -4.980390 89.300700 3.889170 -79.799300 -5.348130 -0.000001 -0.000004 -71.089100 -14.867500 -75.405100 -24.328900 0.000322 -0.000009 21.872000 -9.526720 -112.406000 -22.291500 -0.000108 -0.000004 25.865900 5.209610 2.477090 -2.192480 -6.469440 -0.000000 -174.850000 -8.244880 -7.061830 39.081100 -0.000007 -0.000012 -0.172954 0.270057 32.637300 40.985400 -0.000006 -0.000013 -0.807393 4.125740 -66.750500 11.754300 -0.000000 0.000003 -0.000069 -0.000744 -16.606300 -2.192510 6.469440 -0.000001 177.838000 18.352100 173.983000 -39.081100 -0.002282 -0.040193 -0.103856 0.170608 32.131800 -40.985400 0.000008 0.000006 5.245720 10.644000 -67.906700 -11.754300 -0.000006 -0.000006 -0.003956 -0.050981 -18.646900
0.000000 0.000000 0.000000 0.000000 0.000000 -0.000000 -1.581110 90.755300 -6.734350 89.065300 -2.584830 8.751490 15.735700 0.000005 -0.000001 86.321900 75.884700 -87.085300 8.984550 -0.406207 -0.000000 20.401600 -1.852670 -1.198610 16.377300 -0.000001 -0.000001 7.059930 -4.131470 2.725830 6.456720 -0.000001 -0.000000 -6.801490 -2.291290 -1.987970 12.994200 -0.242716 4.980390 -91.125100 5.455500 -78.329100 5.348090 -0.000007 -0.000001 -45.530400 40.910200 -39.378500 24.328600 0.000019 0.000005 7.139200 17.666200 -22.427300 22.291600 -0.000001 0.000005 11.942200 5.263700 1.067800 12.994500 -0.242716 -4.980390 89.298600 3.892800 -79.777300 -5.348130 -0.000001 -0.000004 -70.964000 -14.808300 -75.264400 -24.328900 0.000322 -0.000009 21.916500 -9.478340 -112.259000 -22.291500 -0.000108 -0.000004 25.796900 5.210270 2.460430 -2.192480 -6.469440 -0.000000 -174.864000 -8.282700 -7.108270 39.081100 -0.000007 -0.000012 -0.173090 0.270078 32.655700 40.985400 -0.000006 -0.000013 -0.798558 4.075570 -66.738900 11.754300 -0.000000 0.000003 -0.000068 -0.000741 -16.606200 -2.192510 6.469440 -0.000001 177.840000 18.317000 173.924000 -39.081100 -0.002282 -0.040193 -0.108619 0.178233 32.125800 -40.985400 0.000008 0.000006 5.146200 10.696500 -67.841500 -11.754300 -0.000006 -0.000006 -0.003808 -0.049432 -18.583800
0.000000 0.000000 0.000000 0.000000 0.000000 -0.000000 -1.562270 90.761800 -6.761440 89.071000 -2.673450 8.748020 15.735700 0.000005 -0.000001 86.401100 75.867600 -87.157900 8.984550 -0.406207 -0.000000 20.438300 -1.816120 -1.191470 16.377300 -0.000001 -0.000001 7.040540 -4.123370 2.719000 6.456720 -0.000001 -0.000000 -6.883790 -2.305310 -1.967560 12.994200 -0.242716 4.980390 -91.130000 5.469090 -78.307700 5.348090 -0.000007 -0.000001 -45.608100 40.991700 -39.263200 24.328600 0.000019 0.000005 7.106150 17.640900 -22.360600 22.291600 -0.000001 0.000005 11.867500 5.264250 1.053160 12.994500 -0.242716 -4.980390 89.290400 3.932250 -79.762200 -5.348130 -0.000001 -0.000004 -70.768100 -14.728500 -75.094800 -24.328900 0.000322 -0.000009 21.975100 -9.422750 -112.083000 -22.291500 -0.000108 -0.000004 25.639200 5.208990 2.492790 -2.192480 -6.469440 -0.000000 -174.873000 -8.364810 -7.103590 39.081100 -0.000007 -0.000012 -0.170387 0.266171 32.625200 40.985400 -0.000006 -0.000013 -0.785896 4.072770 -66.711700 11.754300 -0.000000 0.000003 -0.000063 -0.000691 -16.604300 -2.192510 6.469440 -0.000001 177.845000 18.243500 173.904000 -39.081100 -0.002282 -0.040193 -0.106316 0.174729 32.101500 -40.985400 0.000008 0.000006 5.153060 10.709700 -67.806300 -11.754300 -0.000006 -0.000006 -0.003993 -0.051371 -18.662700
